<svg xmlns="http://www.w3.org/2000/svg" viewBox="0 0 673.3 275.81"><defs><style>.cls-1{fill:#ebe7e8;}</style></defs><g id="Ebene_2" data-name="Ebene 2"><g id="Ebene_1-2" data-name="Ebene 1"><path class="cls-1" d="M48.46,231.83H49l.73-1.77C56.9,211.2,60.86,208,67.22,203.9l.21.52c-3.34,3.23-4.9,7.09-7.51,13.86-1.87,4.8-3.54,9.59-5.31,14.28,4.06.83,8.65,2.08,13.24,2.08a5.68,5.68,0,0,0,5.1-2.71l.42.32c-1.67,2.71-4.59,5.21-11.47,5.21a44.51,44.51,0,0,1-8.54-1.36c-1.15,3.13-2.29,6.26-3.54,9.17a16.75,16.75,0,0,0,7-3.64l.21.31a16.56,16.56,0,0,1-7.4,3.86c-6.88,16.88-15.43,30-32.73,30-11.46,0-16.88-7-16.88-14s5.42-14.06,15.32-14.06c9.48,0,14,5.73,14,11.46,0,5.42-4.16,10.84-12,10.84a13.23,13.23,0,0,1-3.65-.63l.11-.41a12.33,12.33,0,0,0,3.54.52c7,0,10.73-5.11,10.73-10.32,0-5.42-4.06-11.05-12.5-11.05-9,0-13.65,6.57-13.65,13.24,0,6.88,4.89,13.75,15,13.75,14.28,0,20.64-12.61,26.89-29.07-3.33-.52-6.46-2.19-6.46-6.15C37.31,235.06,41.69,231.83,48.46,231.83ZM27.83,194.21c-15,0-21.58,9.48-21.58,18.13,0,7.3,5.42,13.86,17.82,13.86,12.93,0,21.06-8.13,21.06-15.32,0-6-6.15-8.86-13.14-8.86-5.52,0-11.67,1.67-15.73,4.9l-.32-.52a27.08,27.08,0,0,1,15.64-5.73c7.61,0,14.07,3.65,14.07,10.21,0,7.71-8.55,16.78-21.78,16.78-12,0-18.14-7.4-18.14-15.32,0-10.73,9.28-22.3,29.5-22.3,23.44,0,48.77,11.88,64.09,11.88,6.46,0,8.13-2.19,8.13-3.86s-1.67-3-5.32-3a11.22,11.22,0,0,0-5.83,1.77L96,196.4a12,12,0,0,1,6.47-2c3.12,0,5.73,1.46,5.73,4.06,0,3.65-3.34,7.19-12.4,7.19C79.52,205.67,55.65,194.21,27.83,194.21Zm19.9,41a22.5,22.5,0,0,0-2.6-.21c-5.74,0-7.3,2.71-7.3,5,0,3.86,3,5.31,6.05,5.73Z"/><path class="cls-1" d="M93.69,229.22c8,0,10.73,5.22,10.73,10.84,0,12.61-10.94,25-23.55,25-6.15,0-10.42-3.65-10.42-10.32C70.45,240.79,82.12,229.22,93.69,229.22ZM99,236.83c0-3.75-1.25-7.08-5.1-7.08-10,0-18,17.09-18,28.13,0,4.59,1.87,6.67,5.1,6.67C91.29,264.55,99,246.73,99,236.83Z"/><path class="cls-1" d="M118.28,265.08c-3.23,0-6.25-1.36-6.25-5.63,0-6.67,10.84-24,10.84-27.2,0-2.19-1.88-2.4-2.82-2.4-4.89,0-10,6.88-13,13.13l-.32-.21c2.92-6.35,8.13-13.55,13.45-13.55,2.19,0,5.73,1.05,5.73,7,0,9.27-9.9,23.66-9.9,26.68,0,.94.21,1.56,2.5,1.56,8.23,0,16.47-11.67,22.62-26,1.35-3.13,2.39-6.15,3.12-7.82a28.63,28.63,0,0,0,6.57-.52c-9.9,22.72-13,30.64-13,33.45,0,.32.31,1,2.09,1,3.64,0,7.92-3.54,12-12l.52.1c-5.1,10.74-10,12.41-12.61,12.41-3.65,0-5-2.51-5-5.94,0-4.38,2.08-10.22,4.27-15C132.66,257.05,125.16,265.08,118.28,265.08Z"/><path class="cls-1" d="M184.56,233.6c13.24-31.47,26.58-44,41.9-44,7.4,0,10.84,3.65,10.84,7.51,0,4.27-4.28,8.75-11.88,8.75a23.9,23.9,0,0,1-11-3.13l.21-.41a26.19,26.19,0,0,0,10.52,2.71c7.2,0,11.05-4.17,11.05-8.13,0-3.55-3.13-6.88-9.59-6.88-15.21,0-22.72,13.76-30.85,31.68-9,20.11-16.46,38.56-16.46,41.48,0,.83.42,1.35,2.19,1.35,2.92,0,7.29-2.5,11.88-12l.41.21c-5,10.52-9.69,12.3-12.71,12.3-3.65,0-5-2.4-5-6.05,0-3.23,1.14-7.5,2.92-11.78-4,7.82-10,17.83-16.57,17.83-5.32,0-8.24-4-8.24-9.7,0-15,12.4-26.16,22.51-26.16C179.67,229.22,183,230.37,184.56,233.6Zm-.31.63c-1.35-3-3.75-4.27-7.4-4.27-10.73,0-18.24,21-18.24,30.53,0,3.54,2.09,4.06,3.86,4.06,8.13,0,16.36-17.5,19.8-25.32Z"/><path class="cls-1" d="M198.11,264.66a19.73,19.73,0,0,0-5.73-.83c2.08-5,4.27-10,6.25-15,14.9-37.62,29.7-60,50-60,6.87,0,10,3.65,10,7.5,0,4.28-3.86,8.86-10.84,8.86a17.34,17.34,0,0,1-10.32-3.44l.21-.31a16.11,16.11,0,0,0,9.8,2.92c6.46,0,10.32-4.38,10.32-8.44,0-3.44-2.82-6.67-9.17-6.67-23.45,0-39.19,48.46-45.34,62.11,6.78-13.65,15.43-22.1,22.51-22.1,3.34,0,6.26,1.46,6.26,5.63,0,7.19-10.22,23.24-10.22,27.62,0,1.25,1.15,2.08,3.13,2.08,5.11,0,9-5.83,11.88-12.08l.42.1c-1.57,3.75-6.05,12.51-12.3,12.51-2.61,0-6.15-1.15-6.15-6.88,0-8.55,9.48-24.18,9.48-26.68,0-.73-.52-1.56-2.71-1.56-9,0-19.28,13.75-25.53,29.7Z"/><path class="cls-1" d="M269.5,233.6l1.25-3a27.85,27.85,0,0,0,6.25-.52c-9.79,22.82-12.82,30.85-12.82,33.35,0,.83.94,1.14,2,1.14,3.13,0,7.4-2.29,12.09-12l.42.21c-5,10.52-9.69,12.3-12.71,12.3-3.55,0-5-2.51-5-6.15,0-3.13,1.25-7.19,2.92-11.36-4.27,8.13-10.11,17.51-16.78,17.51-5.11,0-8-4-8-9.7,0-15,12.4-26.16,22.51-26.16C264.6,229.22,267.94,230.37,269.5,233.6Zm-2.29,5.53,2-4.9c-1.36-3-3.76-4.27-7.4-4.27-10.74,0-18.24,20.73-18.24,30.53,0,3.54,2.08,4,3.75,4C255.53,264.45,263.87,246.84,267.21,239.13Z"/><path class="cls-1" d="M289.3,263.1a1.37,1.37,0,0,0,1.56,1.35c3.75,0,7.61-3.75,11.47-12.09l.52.21c-5,11.05-9.38,12.51-12,12.51-3.65,0-5.21-2.3-5.21-5.84,0-4.07,2-9.69,4.69-15.32,5.11-10.53,5.21-12,5.21-12.92s-.73-1-2-1c-4.69,0-9,5.73-13.13,13.75l-.52-.21c5.31-10.52,9.79-14.28,13.76-14.28,3.64,0,5.21,2.3,5.21,5.84s-1.57,8.44-4.07,13.55C290.65,257.26,289.3,260.7,289.3,263.1Zm13.86-49.92a2.43,2.43,0,0,1,2.71,2.6c0,3-2.5,5.63-4.59,5.63a2.48,2.48,0,0,1-2.71-2.61C298.57,216.62,300.55,213.18,303.16,213.18Z"/><path class="cls-1" d="M316.08,234.44c7.61-19.39,19-44.4,41.69-44.4,7.29,0,10.73,3.44,10.73,6.25,0,4.9-4.48,7.3-9.9,7.3a19.64,19.64,0,0,1-10.32-2.92l.21-.31a20.54,20.54,0,0,0,9.69,2.18c6.26,0,9.7-3,9.7-6.25,0-2.81-3.44-5.83-10.11-5.83-20,0-27,25.42-36.27,44.29-3.86,7.71-10,23.45-18.65,28.24a26.73,26.73,0,0,0,7.19,1.36c4.58,0,10-2.4,14.59-12.41l.41.11c-4.37,10.11-10.21,13-14.9,13a26.39,26.39,0,0,1-7.71-1.67c-.84.62-2.19,1.67-3.55,1.67-1.14,0-1.56-.63-1.56-1.15,0-1.15,1-1.56,2.29-1.56a8.8,8.8,0,0,1,2.4.41C307.85,258.3,312.12,244.54,316.08,234.44Z"/><path class="cls-1" d="M336.4,263.1a1.37,1.37,0,0,0,1.56,1.35c3.76,0,7.61-3.75,11.47-12.09l.52.21c-5,11.05-9.38,12.51-12,12.51-3.64,0-5.21-2.3-5.21-5.84,0-4.07,2-9.69,4.69-15.32,5.11-10.53,5.21-12,5.21-12.92s-.73-1-2-1c-4.69,0-9,5.73-13.13,13.75l-.52-.21c5.32-10.52,9.8-14.28,13.76-14.28,3.65,0,5.21,2.3,5.21,5.84s-1.56,8.44-4.07,13.55C337.76,257.26,336.4,260.7,336.4,263.1Zm13.86-49.92a2.43,2.43,0,0,1,2.71,2.6c0,3-2.5,5.63-4.58,5.63a2.48,2.48,0,0,1-2.71-2.61C345.68,216.62,347.66,213.18,350.26,213.18Z"/><path class="cls-1" d="M129.68,174.6a52.87,52.87,0,0,0,16,2.6c30.68,0,47.9-19.82,47.9-41.77,0-18.64-15.34-31.38-40.82-31.38-32.32,0-50.49,23.6-50.49,49.55,0,25,15.1,42,46,42,48.13,0,73.38-41.53,73.38-72,0-11.33-3.54-21.24-10.62-26.67a9.57,9.57,0,0,1-6.37,2.36c-4.48,0-8-3.06-11.56-7.31-4.49.23-12,.47-19.59.47-9.2,0-17.69-2.12-17.69-10.38a11.85,11.85,0,0,1,.47-3.07c-8-3.77-13.45-10.62-13.45-21.94C142.89,29,170,5.9,210.37,5.9c18.41,0,38.93,6.37,38.93,23.83,0,23.36-27.6,36.81-47.89,36.81-14.63,0-25.49-5.67-25.49-19.11,0-19.12,21.71-27.61,39.41-27.61a46.36,46.36,0,0,1,11.79,1.41l-.23.71a41.26,41.26,0,0,0-9.44-.94c-18.4,0-40.35,10.38-40.35,26.43,0,10.61,10.62,14.15,25,14.15,19.59,0,46-12.74,46-31.85,0-16.28-18.4-22.18-37.75-22.18-34.21,0-56.86,23.83-56.86,52.14,0,7.08,2.12,11.57,5.66,14.4a12.23,12.23,0,0,1,8-3.07c6.37,0,11.33,3.3,15.58,7.31,3.06-.23,8-.7,15.8-.7,11.33,0,15.58,6.13,15.58,12.5,12.74,4,20.52,13.69,20.52,31.15,0,38.22-32.32,75.73-86.59,75.73-32.32,0-55.45-16.28-55.45-43.41,0-25,20.06-50.73,60.17-50.73,29.73,0,46,14.16,46,31.86,0,23.35-19.11,43.65-53.56,43.65a50.73,50.73,0,0,1-15.81-2.84Zm60.16-86.83-4.24-5.19c-3.78.24-7.08.24-8.73.24A52.9,52.9,0,0,1,158,79.75a4.72,4.72,0,0,0-.23,1.65c0,2.36,1.65,6.84,15.57,6.84C178.52,88.24,184.89,87.77,189.84,87.77Zm-29.73-13c5.2,3.31,12.75,3.54,20.3,3.54h1.18c-4-3.54-8.73-6.37-14.4-6.37A9.64,9.64,0,0,0,160.11,74.79ZM213,89.9c0-4-3.31-7.79-11.09-7.79-2.6,0-9.2.24-15.1.47L191,87.77h5.43A58.34,58.34,0,0,1,213,89.9Zm-2.83,6.37A24.54,24.54,0,0,0,196,92h-1.42c3.31,3.77,6.37,6.37,10.15,6.37A7.52,7.52,0,0,0,210.14,96.27Z"/><path class="cls-1" d="M318.91,101.46l2.83-6.85a63.15,63.15,0,0,0,14.16-1.18c-22.18,51.68-29,69.84-29,75.51,0,1.89,2.13,2.59,4.49,2.59,7.08,0,16.75-5.19,27.37-27.13l.94.47c-11.33,23.83-21.94,27.84-28.79,27.84-8,0-11.32-5.66-11.32-13.92,0-7.08,2.83-16.28,6.61-25.72-9.68,18.41-22.89,39.64-38,39.64-11.56,0-18.17-9-18.17-21.94,0-34,28.08-59.22,51-59.22C307.82,91.55,315.37,94.14,318.91,101.46ZM313.72,114l4.48-11.09c-3.07-6.84-8.49-9.67-16.75-9.67-24.31,0-41.29,47-41.29,69.13,0,8,4.72,9,8.49,9C287.29,171.3,306.17,131.42,313.72,114Z"/><path class="cls-1" d="M373.65,147.47c19.82-40.59,37.28-54,56.86-55.92l.24,1.18c-12.75,11.32-18.17,26.42-18.17,38.69,0,7.32,3.3,12.51,7.31,12.51,5.9,0,9.68-4,13-10.38l.71.23c-4,8.5-8.5,11.56-15.58,11.56-11.79,0-17.69-7.55-17.69-18.64,0-12.74,8-23.59,17-30-17,5.66-30.91,27.84-43.89,53.56-3.3,7.78-7.08,17.46-8.73,21.47-3.07-1.42-6.37-1.89-14.39-1.89L376,107.12c2.59-5.9,3.3-9.44,3.3-11.09,0-1.18,0-2.83-4.72-2.83-10.38,0-21.71,11.56-30.91,29.49l-.71-.47c11.57-23.36,24.31-30.67,32.09-30.67,8.26,0,11.33,5.66,11.33,13.68,0,9.68-4.25,22.65-9.2,34.21Z"/><path class="cls-1" d="M505.54,101.46l2.83-6.85a63.1,63.1,0,0,0,14.16-1.18c-22.18,51.68-29,69.84-29,75.51,0,1.89,2.12,2.59,4.48,2.59,7.08,0,16.75-5.19,27.37-27.13l.94.47c-11.32,23.83-21.94,27.84-28.78,27.84-8,0-11.33-5.66-11.33-13.92,0-7.08,2.83-16.28,6.61-25.72-9.68,18.41-22.89,39.64-38,39.64-11.56,0-18.17-9-18.17-21.94,0-34,28.08-59.22,51-59.22C494.45,91.55,502,94.14,505.54,101.46ZM500.35,114l4.48-11.09c-3.06-6.84-8.49-9.67-16.75-9.67-24.3,0-41.29,47-41.29,69.13,0,8,4.72,9,8.49,9C473.92,171.3,492.8,131.42,500.35,114Z"/><path class="cls-1" d="M536.21,171.77c-4.48-1.42-7.78-1.65-13-1.89,4.72-11.32,9.67-22.65,14.15-34C571.13,50.73,604.64,0,650.65,0c15.57,0,22.65,8.26,22.65,17,0,9.67-8.73,20.05-24.54,20.05a39.13,39.13,0,0,1-23.36-7.78l.47-.71c5,3.54,11.8,6.61,22.18,6.61,14.63,0,23.36-9.91,23.36-19.12,0-7.78-6.37-15.1-20.76-15.1C597.56.94,561.93,110.66,548,141.57c15.34-30.91,34.92-50,51-50,7.55,0,14.15,3.3,14.15,12.74,0,16.28-23.12,52.61-23.12,62.52,0,2.84,2.59,4.72,7.08,4.72,11.56,0,20.29-13.21,26.9-27.37l.94.24c-3.54,8.49-13.69,28.31-27.84,28.31-5.9,0-13.92-2.59-13.92-15.57,0-19.35,21.47-54.74,21.47-60.4,0-1.65-1.18-3.54-6.14-3.54-20.29,0-43.65,31.14-57.8,67.24Z"/></g></g></svg>