<svg xmlns="http://www.w3.org/2000/svg" viewBox="0 0 639.16 639.16"><defs><style>.cls-1{fill:#2d3a51;}</style></defs><g id="Ebene_2" data-name="Ebene 2"><g id="design"><path class="cls-1" d="M319.58,639.16A319.58,319.58,0,0,1,93.6,93.6a319.58,319.58,0,0,1,452,452A317.5,317.5,0,0,1,319.58,639.16Zm0-612.32a292.74,292.74,0,0,0-207,499.74,292.74,292.74,0,0,0,414-414A290.84,290.84,0,0,0,319.58,26.84Z"/><path class="cls-1" d="M414.62,203.76a21,21,0,1,0,21,21.05A21,21,0,0,0,414.62,203.76Z"/><path class="cls-1" d="M321.06,230.75a88.41,88.41,0,1,0,88.4,88.4A88.51,88.51,0,0,0,321.06,230.75Zm0,145a56.63,56.63,0,1,1,56.62-56.63A56.7,56.7,0,0,1,321.06,375.78Z"/><path class="cls-1" d="M391.24,498.64H247.92A108,108,0,0,1,140.09,390.82V247.49A107.94,107.94,0,0,1,247.92,139.67H391.24A108,108,0,0,1,499.07,247.49V390.82A108,108,0,0,1,391.24,498.64ZM247.92,173.44a74.12,74.12,0,0,0-74,74.05V390.82a74.13,74.13,0,0,0,74,74.05H391.24a74.14,74.14,0,0,0,74.06-74.05V247.49a74.14,74.14,0,0,0-74.06-74.05Z"/></g></g></svg>