<svg id="Ebene_1" data-name="Ebene 1" xmlns="http://www.w3.org/2000/svg" viewBox="0 0 4867.99 1080"><defs><style>.cls-1{fill:#2d3a51;}</style></defs><path class="cls-1" d="M581.51,438.29c-33.21,0-66.42-1-89.25-15.56q12.45-12.47,31.14-12.46c24.9,0,45.66,12.46,63.3,28Z"/><path class="cls-1" d="M481.88,451.78a20.2,20.2,0,0,1,1-7.26c24.91,9.34,51.89,13.49,83,13.49,7.26,0,21.79,0,38.4-1L623,479.81c-21.8,0-49.82,2.07-72.65,2.07C489.15,481.88,481.88,462.16,481.88,451.78Z"/><path class="cls-1" d="M650,498.49c24.91,0,45.67,7.26,62.27,18.68-6.23,6.22-14.53,9.34-23.87,9.34-16.6,0-30.1-11.42-44.63-28Z"/><path class="cls-1" d="M628.22,479.81,609.54,457c25.94-1,55-2.07,66.42-2.07,34.24,0,48.77,16.6,48.77,34.25-20.75-6.23-45.66-9.34-72.64-9.34Z"/><path class="cls-1" d="M540,0C241.77,0,0,241.77,0,540s241.77,540,540,540,540-241.77,540-540S838.23,0,540,0ZM673.88,386.4c-64.34,0-112.08-24.91-112.08-84.06,0-84.07,95.48-121.43,173.31-121.43,18.68,0,36.33,2.08,51.89,6.23l-1,3.11c-13.49-3.11-27-4.15-41.51-4.15-81,0-177.46,45.67-177.46,116.24,0,46.7,46.7,62.27,110,62.27,86.14,0,202.38-56,202.38-140.11,0-71.61-81-97.55-166-97.55C562.83,127,463.2,231.77,463.2,356.31c0,31.13,9.34,50.85,24.91,63.3a53.91,53.91,0,0,1,35.29-13.49c28,0,49.81,14.53,68.49,32.17,13.49-1,35.29-3.11,69.54-3.11,49.81,0,68.49,27,68.49,55,56,17.65,90.29,60.2,90.29,137,0,168.13-142.18,333.14-380.88,333.14-142.18,0-243.89-71.61-243.89-191,0-110,88.22-223.13,264.65-223.13,130.77,0,202.38,62.27,202.38,140.1,0,102.75-84.07,192-235.59,192-13.49,0-45.67-3.11-69.54-12.45l1-4.15c25.95,9.34,57.08,11.41,70.57,11.41,134.92,0,210.68-87.17,210.68-183.69,0-82-67.46-138-179.54-138C317.91,551.42,238,655.2,238,769.36c0,110,66.42,184.73,202.38,184.73,211.72,0,322.76-182.66,322.76-316.53,0-49.82-15.56-93.41-46.7-117.28a42.14,42.14,0,0,1-28,10.38c-19.72,0-35.29-13.49-50.85-32.17-19.72,1-52.93,2.07-86.14,2.07-40.48,0-77.84-9.34-77.84-45.66a52.9,52.9,0,0,1,2.07-13.49c-35.28-16.61-59.15-46.71-59.15-96.52,0-123.5,119.35-225.21,296.82-225.21,80.95,0,171.24,28,171.24,104.82C884.56,327.25,763.13,386.4,673.88,386.4ZM587.77,625.09a30.52,30.52,0,0,0-15.89,4.82l-.85-1.13a32.6,32.6,0,0,1,17.59-5.39c8.51,0,15.6,4,15.6,11.06,0,9.93-9.08,19.57-33.75,19.57-44.25,0-109.2-31.2-184.93-31.2-40.85,0-58.72,25.81-58.72,49.35,0,19.86,14.75,37.73,48.51,37.73,35.17,0,57.29-22.13,57.29-41.7,0-16.45-16.73-24.11-35.74-24.11-15,0-31.76,4.54-42.83,13.33L353.2,656c13.33-10.49,30.35-15.59,42.55-15.59,20.7,0,38.29,9.92,38.29,27.79,0,21-23.26,45.67-59.28,45.67-32.62,0-49.35-20.14-49.35-41.7,0-29.21,25.24-60.69,80.27-60.69,63.81,0,132.74,32.33,174.43,32.33,17.59,0,22.12-6,22.12-10.5C602.23,629.06,597.7,625.09,587.77,625.09ZM351.5,768.61c25.81,0,38,15.6,38,31.2,0,14.75-11.35,29.5-32.62,29.5A36.22,36.22,0,0,1,347,827.6l.29-1.13a33.06,33.06,0,0,0,9.64,1.42c19,0,29.21-13.9,29.21-28.08,0-14.75-11.06-30.07-34-30.07-24.4,0-37.16,17.87-37.16,36,0,18.72,13.33,37.45,40.85,37.45,38.85,0,56.15-34.33,73.17-79.14-9.07-1.42-17.58-6-17.58-16.73,0-13.34,11.91-22.13,30.35-22.13h1.41l2-4.82c19.57-51.34,30.35-60.13,47.65-71.19l.57,1.42c-9.08,8.79-13.33,19.28-20.42,37.72-5.11,13-9.65,26.09-14.47,38.86,11.06,2.27,23.54,5.67,36,5.67,5.11,0,10.78-2,13.9-7.37l1.13.85c-4.53,7.37-12.47,14.18-31.19,14.18-6,0-14.47-1.7-23.26-3.69-3.12,8.51-6.24,17-9.65,25a45.64,45.64,0,0,0,19-9.93l.56.86a44.65,44.65,0,0,1-20.13,10.49c-18.72,45.95-42,81.69-89.06,81.69-31.2,0-46-19-46-38S324.56,768.61,351.5,768.61Zm88.21-34.32a63.24,63.24,0,0,0-7.09-.57c-15.6,0-19.86,7.38-19.86,13.62,0,10.49,8.23,14.46,16.46,15.6Z"/><path class="cls-1" d="M1267.9,736.76c15.25,5.49,33.55,6.71,41.48,6.71,79.31,0,123.85-51.25,123.85-108,0-48.2-39.66-81.14-105.54-81.14-83.59,0-130.57,61-130.57,128.12,0,64.67,39.05,108.59,119,108.59,124.46,0,189.74-107.37,189.74-186.07,0-29.29-9.15-54.91-27.45-69a24.79,24.79,0,0,1-16.47,6.1c-11.6,0-20.75-7.93-29.9-18.91-11.59.61-31.11,1.22-50.64,1.22-23.79,0-45.75-5.49-45.75-26.84a30.91,30.91,0,0,1,1.22-7.93c-20.75-9.76-34.78-27.46-34.78-56.74,0-72.6,70.16-132.39,174.49-132.39,47.59,0,100.66,16.47,100.66,61.62,0,60.4-71.38,95.17-123.84,95.17-37.83,0-65.9-14.64-65.9-49.42,0-49.41,56.13-71.38,101.89-71.38a119.45,119.45,0,0,1,30.5,3.66l-.6,1.83a107,107,0,0,0-24.41-2.44c-47.59,0-104.32,26.85-104.32,68.33,0,27.46,27.45,36.61,64.67,36.61,50.63,0,119-32.95,119-82.36,0-42.1-47.58-57.35-97.61-57.35-88.47,0-147,61.62-147,134.83,0,18.3,5.49,29.89,14.65,37.21a31.68,31.68,0,0,1,20.74-7.93c16.47,0,29.29,8.55,40.27,18.92,7.93-.61,20.74-1.83,40.87-1.83,29.29,0,40.27,15.86,40.27,32.33,33,10.37,53.08,35.39,53.08,80.53,0,98.84-83.59,195.85-223.91,195.85-83.58,0-143.37-42.1-143.37-112.26,0-64.67,51.86-131.17,155.58-131.17,76.87,0,119,36.6,119,82.36,0,60.4-49.41,112.87-138.49,112.87-7.93,0-26.84-1.83-40.87-7.32Zm155.57-224.52-11-13.42c-9.76.61-18.3.61-22.57.61-18.31,0-34.17-2.44-48.81-7.93a11.91,11.91,0,0,0-.61,4.27c0,6.1,4.27,17.69,40.26,17.69C1394.19,513.46,1410.66,512.24,1423.47,512.24Zm-76.87-33.56c13.42,8.55,32.94,9.16,52.47,9.16h3c-10.37-9.16-22.58-16.48-37.22-16.48A24.83,24.83,0,0,0,1346.6,478.68Zm136.66,39.05c0-10.37-8.54-20.13-28.67-20.13-6.71,0-23.8.61-39,1.22l11,13.42h14C1456.41,512.24,1471.06,514.07,1483.26,517.73Zm-7.32,16.47a63.47,63.47,0,0,0-36.61-11h-3.66c8.54,9.76,16.47,16.47,26.24,16.47A19.32,19.32,0,0,0,1475.94,534.2Z"/><path class="cls-1" d="M1757.18,547.63l7.32-17.7c15.26,0,25-.61,36.61-3-57.35,133.61-75,180.59-75,195.23,0,4.88,5.49,6.72,11.59,6.72,18.3,0,43.32-13.43,70.77-70.17l2.44,1.22c-29.29,61.62-56.74,72-74.43,72-20.74,0-29.29-14.65-29.29-36,0-18.3,7.33-42.1,17.09-66.5-25,47.59-59.18,102.5-98.23,102.5-29.89,0-47-23.19-47-56.74,0-87.86,72.61-153.14,131.79-153.14C1728.51,522,1748,528.71,1757.18,547.63ZM1743.76,580l11.59-28.67c-7.93-17.7-22-25-43.32-25-62.84,0-106.76,121.41-106.76,178.76,0,20.74,12.2,23.19,22,23.19C1675.43,728.22,1724.24,625.11,1743.76,580Z"/><path class="cls-1" d="M1898.72,666.59c51.25-104.93,96.39-139.71,147-144.59l.61,3c-32.94,29.29-47,68.33-47,100.06,0,18.91,8.55,32.33,18.92,32.33,15.25,0,25-10.37,33.55-26.84l1.83.61c-10.37,22-22,29.89-40.26,29.89-30.51,0-45.76-19.52-45.76-48.19,0-32.95,20.74-61,43.93-77.49-43.93,14.65-79.93,72-113.48,138.5-8.54,20.13-18.3,45.14-22.57,55.52-7.94-3.67-16.48-4.89-37.22-4.89l66.5-162.28c6.71-15.25,8.54-24.41,8.54-28.68,0-3.05,0-7.32-12.2-7.32-26.84,0-56.13,29.9-79.92,76.26l-1.83-1.22c29.89-60.39,62.84-79.31,83-79.31,21.35,0,29.28,14.64,29.28,35.39,0,25-11,58.57-23.79,88.46Z"/><path class="cls-1" d="M2239.76,547.63l7.32-17.7c15.25,0,25-.61,36.6-3-57.35,133.61-75,180.59-75,195.23,0,4.88,5.49,6.72,11.59,6.72,18.31,0,43.32-13.43,70.77-70.17l2.44,1.22c-29.28,61.62-56.74,72-74.43,72-20.74,0-29.28-14.65-29.28-36,0-18.3,7.32-42.1,17.08-66.5-25,47.59-59.18,102.5-98.23,102.5-29.89,0-47-23.19-47-56.74,0-87.86,72.6-153.14,131.78-153.14C2211.08,522,2230.6,528.71,2239.76,547.63ZM2226.33,580l11.6-28.67c-7.94-17.7-22-25-43.32-25-62.84,0-106.77,121.41-106.77,178.76,0,20.74,12.2,23.19,22,23.19C2158,728.22,2206.81,625.11,2226.33,580Z"/><path class="cls-1" d="M2319.06,729.44c-11.59-3.67-20.13-4.28-33.55-4.89,12.2-29.28,25-58.57,36.6-87.85C2409.36,416.46,2496,285.28,2615,285.28c40.27,0,58.57,21.36,58.57,43.93,0,25-22.58,51.86-63.45,51.86a101.2,101.2,0,0,1-60.4-20.13l1.22-1.83c12.81,9.15,30.5,17.08,57.35,17.08,37.82,0,60.4-25.63,60.4-49.42,0-20.13-16.47-39-53.69-39-137.27,0-229.4,283.7-265.39,363.62C2389.22,571.42,2439.86,522,2481.35,522c19.52,0,36.6,8.54,36.6,33,0,42.09-59.78,136-59.78,161.67,0,7.32,6.71,12.21,18.3,12.21,29.89,0,52.46-34.17,69.55-70.78l2.44.61c-9.15,22-35.39,73.22-72,73.22-15.25,0-36-6.72-36-40.27,0-50,55.52-141.54,55.52-156.19,0-4.27-3-9.15-15.86-9.15-52.47,0-112.87,80.54-149.47,173.88Z"/><path class="cls-1" d="M2994.42,537.25h3l4.27-10.37c42.1-110.42,65.28-129.34,102.5-153.13l1.22,3.05c-19.52,18.91-28.67,41.49-43.93,81.14-11,28.07-20.74,56.13-31.11,83.59,23.79,4.88,50.64,12.2,77.48,12.2,11,0,23.18-4.27,29.9-15.87l2.44,1.83c-9.77,15.87-26.85,30.51-67.11,30.51-12.82,0-31.12-3.66-50-7.93-6.71,18.3-13.42,36.6-20.75,53.69a98,98,0,0,0,40.88-21.36l1.22,1.83c-14,12.21-28.67,19.53-43.31,22.58-40.27,98.83-90.3,175.71-191.57,175.71-67.12,0-98.84-40.88-98.84-81.76s31.72-82.36,89.68-82.36c55.52,0,81.75,33.55,81.75,67.11,0,31.73-24.4,63.45-70.16,63.45-3.66,0-15.25-1.22-21.35-3.66l.61-2.44a70.84,70.84,0,0,0,20.74,3.05c40.88,0,62.84-29.89,62.84-60.4,0-31.73-23.79-64.67-73.21-64.67-52.47,0-79.92,38.44-79.92,77.48,0,40.27,28.67,80.53,87.86,80.53,83.58,0,120.79-73.82,157.4-170.21-19.52-3.05-37.83-12.81-37.83-36C2929.14,556.17,2954.77,537.25,2994.42,537.25ZM2873.63,317c-87.86,0-126.3,55.52-126.3,106.16,0,42.7,31.73,81.14,104.33,81.14,75.65,0,123.24-47.59,123.24-89.69,0-35.38-36-51.85-76.87-51.85-32.34,0-68.33,9.76-92.13,28.67l-1.83-3.05c28.68-22.57,65.28-33.55,91.52-33.55,44.53,0,82.36,21.35,82.36,59.78,0,45.15-50,98.23-127.51,98.23-70.16,0-106.16-43.32-106.16-89.68,0-62.84,54.3-130.56,172.66-130.56,137.27,0,285.53,69.55,375.21,69.55,37.83,0,47.59-12.82,47.59-22.58,0-9.15-9.76-17.69-31.12-17.69-11.59,0-23.18,3.66-34.16,10.37l-1.83-2.44a70.08,70.08,0,0,1,37.82-11.59c18.31,0,33.56,8.54,33.56,23.79,0,21.36-19.52,42.1-72.6,42.1C3176.23,384.12,3036.52,317,2873.63,317Zm116.52,239.77a139.42,139.42,0,0,0-15.25-1.22c-33.55,0-42.71,15.86-42.71,29.28,0,22.58,17.7,31.12,35.39,33.56Z"/><path class="cls-1" d="M3259.2,522c47,0,62.84,30.51,62.84,63.45,0,73.82-64.06,146.43-137.88,146.43-36,0-61-21.36-61-60.4C3123.15,589.72,3191.48,522,3259.2,522Zm31.11,44.54c0-22-7.32-41.49-29.89-41.49-58.57,0-105.55,100.06-105.55,164.73,0,26.84,11,39.05,29.9,39.05C3245.17,728.83,3290.31,624.5,3290.31,566.54Z"/><path class="cls-1" d="M3403.17,731.88c-18.91,0-36.61-7.94-36.61-33,0-39,63.45-140.32,63.45-159.24,0-12.81-11-14-16.47-14-28.67,0-58.57,40.27-76.26,76.87l-1.83-1.22C3352.54,564.1,3383,522,3414.15,522c12.82,0,33.56,6.1,33.56,40.88,0,54.3-58,138.49-58,156.18,0,5.49,1.22,9.16,14.64,9.16,48.2,0,96.4-68.34,132.39-152.53,7.93-18.3,14-36,18.31-45.76,18.3,0,26.23-.61,38.43-3-58,133-76.26,179.37-76.26,195.84,0,1.83,1.83,6.11,12.2,6.11,21.36,0,46.37-20.75,70.16-70.17l3.05.61c-29.89,62.84-58.56,72.61-73.82,72.61-21.35,0-29.28-14.65-29.28-34.78,0-25.62,12.2-59.79,25-87.85C3487.36,684.9,3443.44,731.88,3403.17,731.88Z"/><path class="cls-1" d="M3791.19,547.63c77.48-184.25,155.57-257.47,245.26-257.47,43.32,0,63.45,21.36,63.45,43.93,0,25-25,51.25-69.55,51.25-20.74,0-45.15-7.32-64.67-18.3l1.22-2.44c15.25,8.54,43.92,15.86,61.62,15.86,42.09,0,64.67-24.4,64.67-47.59,0-20.74-18.31-40.26-56.13-40.26-89.08,0-133,80.53-180.59,185.46-52.47,117.75-96.39,225.74-96.39,242.82,0,4.88,2.43,7.94,12.81,7.94,17.08,0,42.7-14.65,69.55-70.17l2.44,1.22c-29.29,61.62-56.74,72-74.43,72-21.36,0-29.29-14-29.29-35.39,0-18.91,6.71-43.93,17.08-68.94-23.18,45.76-58.57,104.33-97,104.33-31.12,0-48.2-23.19-48.2-56.74,0-87.86,72.6-153.14,131.78-153.14C3762.51,522,3782,528.71,3791.19,547.63Zm-1.83,3.66c-7.93-17.7-22-25-43.32-25-62.84,0-106.76,123.24-106.76,178.76,0,20.74,12.2,23.8,22.57,23.8,47.59,0,95.78-102.5,115.92-148.26Z"/><path class="cls-1" d="M3870.49,729.44c-11.59-3.67-20.13-4.28-33.55-4.89,12.2-29.28,25-58.57,36.61-87.85,87.24-220.24,173.88-351.42,292.84-351.42,40.27,0,58.57,21.36,58.57,43.93,0,25-22.57,51.86-63.45,51.86a101.22,101.22,0,0,1-60.4-20.13l1.22-1.83c12.82,9.15,30.51,17.08,57.35,17.08,37.83,0,60.4-25.63,60.4-49.42,0-20.13-16.47-39-53.69-39-137.27,0-229.39,283.7-265.39,363.62C3940.66,571.42,3991.3,522,4032.78,522c19.53,0,36.61,8.54,36.61,33,0,42.09-59.79,136-59.79,161.67,0,7.32,6.71,12.21,18.3,12.21,29.9,0,52.47-34.17,69.55-70.78l2.44.61c-9.15,22-35.38,73.22-72,73.22-15.25,0-36-6.72-36-40.27,0-50,55.53-141.54,55.53-156.19,0-4.27-3.06-9.15-15.87-9.15-52.47,0-112.87,80.54-149.47,173.88Z"/><path class="cls-1" d="M4288.41,547.63l7.32-17.7c15.25,0,25-.61,36.6-3-57.35,133.61-75,180.59-75,195.23,0,4.88,5.49,6.72,11.59,6.72,18.31,0,43.32-13.43,70.77-70.17l2.45,1.22c-29.29,61.62-56.75,72-74.44,72-20.74,0-29.28-14.65-29.28-36,0-18.3,7.32-42.1,17.08-66.5-25,47.59-59.18,102.5-98.22,102.5-29.9,0-47-23.19-47-56.74,0-87.86,72.6-153.14,131.78-153.14C4259.73,522,4279.25,528.71,4288.41,547.63ZM4275,580l11.6-28.67c-7.93-17.7-22-25-43.32-25-62.84,0-106.77,121.41-106.77,178.76,0,20.74,12.2,23.19,22,23.19C4206.65,728.22,4255.46,625.11,4275,580Z"/><path class="cls-1" d="M4404.32,720.28c0,4.27,3.05,7.94,9.15,7.94,22,0,44.54-22,67.11-70.78l3.05,1.22c-29.28,64.67-54.91,73.22-70.16,73.22-21.35,0-30.5-13.43-30.5-34.17,0-23.79,11.59-56.74,27.45-89.68,29.89-61.62,30.5-70.17,30.5-75.66,0-4.88-4.26-6.1-11.59-6.1-27.45,0-52.47,33.56-76.87,80.54l-3.05-1.23C4380.53,544,4406.76,522,4429.94,522c21.36,0,30.51,13.42,30.51,34.17s-9.15,49.41-23.79,79.31C4412.25,686.12,4404.32,706.25,4404.32,720.28Zm81.14-292.23c11.59,0,15.87,7.32,15.87,15.25,0,17.69-14.65,32.94-26.85,32.94-11.59,0-15.86-7.93-15.86-15.25C4458.62,448.18,4470.21,428.05,4485.46,428.05Z"/><path class="cls-1" d="M4561.11,552.51c44.53-113.48,111-259.9,244-259.9,42.7,0,62.84,20.13,62.84,36.6,0,28.68-26.24,42.71-58,42.71-20.14,0-42.1-5.49-60.4-17.08l1.22-1.83c12.2,7.32,34.16,12.81,56.74,12.81,36.6,0,56.74-17.7,56.74-36.61,0-16.47-20.14-34.16-59.18-34.16-117.14,0-158,148.86-212.32,259.29-22.57,45.14-58.56,137.27-109.21,165.33,11,3.05,26.24,7.93,42.1,7.93,26.85,0,58.57-14,85.42-72.6l2.44.61c-25.63,59.18-59.79,76.27-87.25,76.27-14.64,0-29.89-4.89-45.14-9.77-4.88,3.66-12.82,9.77-20.75,9.77-6.71,0-9.15-3.66-9.15-6.72,0-6.71,6.1-9.15,13.42-9.15a52,52,0,0,1,14,2.44C4512.91,692.22,4537.92,611.69,4561.11,552.51Z"/><path class="cls-1" d="M4680.07,720.28c0,4.27,3.05,7.94,9.15,7.94,22,0,44.54-22,67.11-70.78l3.05,1.22c-29.28,64.67-54.91,73.22-70.16,73.22-21.35,0-30.5-13.43-30.5-34.17,0-23.79,11.59-56.74,27.45-89.68,29.89-61.62,30.5-70.17,30.5-75.66,0-4.88-4.26-6.1-11.59-6.1-27.45,0-52.47,33.56-76.87,80.54l-3.05-1.23C4656.27,544,4682.51,522,4705.69,522c21.36,0,30.51,13.42,30.51,34.17s-9.15,49.41-23.79,79.31C4688,686.12,4680.07,706.25,4680.07,720.28Zm81.14-292.23c11.59,0,15.87,7.32,15.87,15.25,0,17.69-14.65,32.94-26.85,32.94-11.59,0-15.86-7.93-15.86-15.25C4734.37,448.18,4746,428.05,4761.21,428.05Z"/><text/><path class="cls-1" d="M4440.05,872.06c-20.49-8-30.09-25-30.09-42.93,0-29.11,20.33-52.53,58.87-52.53,18.21,0,37.73,7.81,51.71,13.83,1.14.48,2.28,1.3,2.28,2.11a1.16,1.16,0,0,1-1.3,1.14,4.26,4.26,0,0,1-3.58-2.77c-6.18,2.93-8.78,6.83-11.55,16.43a33.36,33.36,0,0,1,9.76,24.23c0,16.26-10.25,33.66-28.46,41.14-4.23,9.75-9.27,16.91-15.77,20.65a41.67,41.67,0,0,0,14.8,2.6c13.17,0,19-8.13,23.9-18.86l.49.32c-3.09,6.83-8.29,19.19-24.23,19.19a48.63,48.63,0,0,1-16.1-2.76c-3.25,1.46-5.85,2.76-8.94,2.76-1.79,0-4.07-.65-4.07-2.92,0-2,1.79-2.77,4.55-2.77a22.07,22.07,0,0,1,8.79,2.12c4.87-2.93,6.83-6.67,9.91-18a60.71,60.71,0,0,1-13.65,1.62,81.91,81.91,0,0,1-23.1-3.09c-16.91,26.18-32.19,39.84-57.56,39.84-23.25,0-34.64-15.12-34.64-30.08,0-14.47,10.57-28.62,31.06-28.62,18.38,0,26.83,11.54,26.83,23.25,0,12-8.78,24.07-24.88,24.07a25.82,25.82,0,0,1-7.8-1.47l.16-.65a24.09,24.09,0,0,0,7.64,1.47c15,0,22.28-10.9,22.28-22.12,0-11.71-8.13-23.74-24.39-23.74-17.73,0-27.16,14-27.16,28,0,14.47,9.92,29.11,30.57,29.11C4411.1,912.55,4424,899.54,4440.05,872.06Zm49.27-74.48c8.13-5.85,16.75-7.8,27.81-7.8l-.65-.33c-12.36-5.2-29.28-12.2-48-12.2-33.33,0-54,23.1-54,51.55,0,18.7,8.62,34.48,26.18,42.12l10.73-19.19a26.82,26.82,0,0,1-16.1-25c0-15.29,12-31.22,37.4-31.22A64.24,64.24,0,0,1,4489.32,797.58Zm-16.1,17.08a75.48,75.48,0,0,1,15.29-16.43,58,58,0,0,0-15.78-2.11c-22.93,0-34,15.77-34,30.73,0,9.76,4.39,19,13.17,23.74,1.46-2.44,2.76-5,4.23-7.8a267.82,267.82,0,0,1,16.58-27.48c-1,0-1.79-.17-2.76-.17-7.81,0-14,3.91-15.29,13.66l-.65-.16c1.3-10.41,8.78-14.15,15.94-14.15C4471.11,814.49,4472.08,814.66,4473.22,814.66Zm-16.91,38.7c-3.9,7-7.81,13.49-11.38,19.19a66.61,66.61,0,0,0,22.44,3.41,48.45,48.45,0,0,0,14-2c1.95-7.48,4.39-18,8.46-33.66-2.93,7.8-10.9,14.15-24.23,14.15A33,33,0,0,1,4456.31,853.36Zm21.3-36.92c-4.88,7.48-9.76,16.43-15.61,26.84l-1.95,3.57c-1.14,1.95-2.28,3.91-3.25,5.86a29.52,29.52,0,0,0,8.78,1.14c15.77,0,23.41-10.41,23.41-20.49A17.78,17.78,0,0,0,4477.61,816.44Zm13.17,19.84c3.42-12.36,6.67-22.76,11.22-30.73a34.68,34.68,0,0,0-10.4-6.18c-4.72,4.07-9.11,9.59-13.5,16.42a18.57,18.57,0,0,1,13,17.73A14.49,14.49,0,0,1,4490.78,836.28Zm15-26.67c-2.11,8-4.55,19.52-9.1,36.59a181,181,0,0,1-8.3,25,45.14,45.14,0,0,0,24.88-39.85A34.1,34.1,0,0,0,4505.74,809.61Zm-2.92-5.52c3.74-6.18,8.29-10.74,14.47-13.66h-1.63c-9.43,0-16.75,2.76-23.25,8.13A41.74,41.74,0,0,1,4502.82,804.09Z"/><path class="cls-1" d="M4534.53,896.61c-5,0-9.76-2.11-9.76-8.78,0-10.41,16.92-37.4,16.92-42.44,0-3.42-2.93-3.74-4.4-3.74-7.64,0-15.61,10.73-20.32,20.49l-.49-.33c4.55-9.92,12.68-21.14,21-21.14,3.41,0,8.94,1.63,8.94,10.9,0,14.47-15.45,36.91-15.45,41.63,0,1.46.33,2.44,3.9,2.44,12.85,0,25.7-18.22,35.29-40.66,2.12-4.87,3.74-9.59,4.88-12.19a44.91,44.91,0,0,0,10.25-.82c-15.45,35.45-20.33,47.81-20.33,52.2,0,.49.49,1.63,3.25,1.63,5.69,0,12.36-5.53,18.7-18.7l.81.16c-8,16.75-15.61,19.35-19.67,19.35-5.69,0-7.81-3.9-7.81-9.27,0-6.83,3.26-15.93,6.67-23.41C4557,884.09,4545.26,896.61,4534.53,896.61Z"/><path class="cls-1" d="M4594.86,843.44h12.52l6.51-14.8a18.38,18.38,0,0,0,10.57-2.93l-7.81,17.73h14.15v1.14h-14.64c-10.73,24.71-19.51,45.53-19.51,48.62,0,1.46,1,2.6,3.58,2.6,8,0,15.12-6,21.62-18.7l.66.16c-5.05,10.41-12.2,19.35-22.77,19.35-3.09,0-8.78-1.46-8.78-9.27,0-5,4.88-17.23,15.94-42.76h-12Z"/><path class="cls-1" d="M4664.78,840.67c12.53,0,16.75,8.13,16.75,16.91,0,19.68-17.07,39-36.75,39-9.59,0-16.26-5.69-16.26-16.1C4628.52,858.72,4646.73,840.67,4664.78,840.67Zm8.3,11.87c0-5.85-1.95-11-8-11-15.61,0-28.13,26.67-28.13,43.9,0,7.16,2.92,10.41,8,10.41C4661,895.8,4673.08,868,4673.08,852.54Z"/><path class="cls-1" d="M4706.09,879.21c13.66-28,25.69-37.24,39.19-38.54l.16.82a36.5,36.5,0,0,0-12.52,26.67c0,5,2.28,8.61,5,8.61,4.07,0,6.67-2.76,8.94-7.15l.49.16c-2.76,5.86-5.85,8-10.73,8-8.13,0-12.2-5.2-12.2-12.85,0-8.78,5.53-16.26,11.71-20.65-11.71,3.9-21.3,19.19-30.24,36.91-2.28,5.37-4.88,12-6,14.8-2.12-1-4.39-1.3-9.92-1.3l17.72-43.25c1.79-4.07,2.28-6.51,2.28-7.65,0-.81,0-2-3.25-2-7.16,0-15,8-21.3,20.33l-.49-.33c8-16.1,16.75-21.14,22.11-21.14,5.7,0,7.81,3.91,7.81,9.44,0,6.66-2.93,15.61-6.34,23.57Z"/><path class="cls-1" d="M4763.17,893.52a2.15,2.15,0,0,0,2.43,2.12c5.86,0,11.88-5.86,17.89-18.87l.82.33c-7.81,17.24-14.64,19.51-18.71,19.51-5.69,0-8.13-3.57-8.13-9.1,0-6.35,3.09-15.13,7.32-23.91,8-16.42,8.13-18.7,8.13-20.16,0-1.3-1.14-1.63-3.09-1.63-7.31,0-14,9-20.49,21.47l-.81-.33c8.29-16.42,15.29-22.28,21.47-22.28,5.69,0,8.13,3.58,8.13,9.11s-2.44,13.17-6.35,21.14C4765.28,884.42,4763.17,889.78,4763.17,893.52Zm21.62-77.89c3.09,0,4.23,2,4.23,4.07,0,4.71-3.9,8.78-7.15,8.78a3.88,3.88,0,0,1-4.23-4.07C4777.64,821,4780.73,815.63,4784.79,815.63Z"/><path class="cls-1" d="M4807.88,880.51c10.57-24.39,25.53-39.84,37.57-39.84,5.2,0,9.59,2.28,9.59,8.79,0,11-15.93,37.4-15.93,42.76,0,1.95,1.79,3.58,5,3.58,8,0,13.82-9.11,18.54-18.86l.65.32c-3.09,6.34-9.44,19.35-19.36,19.35-3.9,0-9.43-1.79-9.43-10.73,0-13.33,14.8-38,14.8-41.63,0-1.14-.81-2.44-4.23-2.44-13.17,0-28.13,18.86-37.89,41.63-2.11,4.88-4.06,10.25-5,12.52-2.11-1-4.39-1.3-9.92-1.3l17.08-41.47c2.44-5.85,2.92-8.29,2.92-9.43,0-.81,0-2-3.25-2-7.15,0-14.79,8-21.14,20.33l-.65-.33c8-16.1,16.75-21.14,22.12-21.14,5.69,0,7.8,3.91,7.8,9.44,0,6.66-2.92,15.61-6.34,23.57Z"/></svg>