<svg xmlns="http://www.w3.org/2000/svg" viewBox="0 0 639.16 639.16"><defs><style>.cls-1{fill:#2d3a51;}</style></defs><g id="Ebene_2" data-name="Ebene 2"><g id="design"><path class="cls-1" d="M319.58,639.16A319.58,319.58,0,0,1,93.6,93.6a319.58,319.58,0,0,1,452,452A317.48,317.48,0,0,1,319.58,639.16Zm0-612.32a292.74,292.74,0,0,0-207,499.74,292.74,292.74,0,0,0,414-414A290.82,290.82,0,0,0,319.58,26.84Z"/><path class="cls-1" d="M478.57,284.3c-3.13.31-6.28.47-9.43.48a102.3,102.3,0,0,1-85.6-46.26V396.05A116.44,116.44,0,1,1,267.11,279.62h0c2.43,0,4.8.22,7.19.37v57.38a59.29,59.29,0,1,0-7.19,118.12c32.82,0,61.81-25.86,61.81-58.69l.58-267.55h54.89a102.26,102.26,0,0,0,94.23,91.29V284.3"/></g></g></svg>