<svg id="Ebene_1" data-name="Ebene 1" xmlns="http://www.w3.org/2000/svg" viewBox="0 0 1080 1080"><defs><style>.cls-1{fill:#dfc6f3;}</style></defs><path class="cls-1" d="M358.38,861.73c25.95,9.34,57.08,11.41,70.57,11.41,134.92,0,210.68-87.17,210.68-183.69,0-82-67.46-138-179.54-138C317.91,551.42,238,655.2,238,769.36c0,110,66.42,184.73,202.38,184.73,211.72,0,322.76-182.66,322.76-316.53,0-49.82-15.56-93.41-46.7-117.28a42.14,42.14,0,0,1-28,10.38c-19.72,0-35.29-13.49-50.85-32.17-19.72,1-52.93,2.07-86.14,2.07-40.48,0-77.84-9.34-77.84-45.66a52.9,52.9,0,0,1,2.07-13.49c-35.28-16.61-59.15-46.71-59.15-96.52,0-123.5,119.35-225.21,296.82-225.21,80.95,0,171.24,28,171.24,104.82,0,102.75-121.43,161.9-210.68,161.9-64.34,0-112.08-24.91-112.08-84.06,0-84.07,95.48-121.43,173.31-121.43,18.68,0,36.33,2.08,51.89,6.23l-1,3.11c-13.49-3.11-27-4.15-41.51-4.15-81,0-177.46,45.67-177.46,116.24,0,46.7,46.7,62.27,110,62.27,86.14,0,202.38-56,202.38-140.11,0-71.61-81-97.55-166-97.55C562.83,127,463.2,231.77,463.2,356.31c0,31.13,9.34,50.85,24.91,63.3a53.91,53.91,0,0,1,35.29-13.49c28,0,49.81,14.53,68.49,32.17,13.49-1,35.29-3.11,69.54-3.11,49.81,0,68.49,27,68.49,55,56,17.65,90.29,60.2,90.29,137,0,168.13-142.18,333.14-380.88,333.14-142.18,0-243.89-71.61-243.89-191,0-110,88.22-223.13,264.65-223.13,130.77,0,202.38,62.27,202.38,140.1,0,102.75-84.07,192-235.59,192-13.49,0-45.67-3.11-69.54-12.45ZM623,479.81,604.35,457c-16.61,1-31.14,1-38.4,1-31.14,0-58.12-4.15-83-13.49a20.2,20.2,0,0,0-1,7.26c0,10.38,7.27,30.1,68.5,30.1C573.21,481.88,601.23,479.81,623,479.81ZM492.26,422.73c22.83,14.53,56,15.56,89.25,15.56h5.19c-17.64-15.56-38.4-28-63.3-28Q504.71,410.27,492.26,422.73Zm232.47,66.42c0-17.65-14.53-34.25-48.77-34.25-11.42,0-40.48,1-66.42,2.07l18.68,22.84h23.87C679.07,479.81,704,482.92,724.73,489.15Zm-12.45,28c-16.6-11.42-37.36-18.68-62.27-18.68h-6.23c14.53,16.6,28,28,44.63,28C697.75,526.51,706.05,523.39,712.28,517.17Z"/><path class="cls-1" d="M441.7,725.21h1.41l2-4.82c19.57-51.34,30.35-60.13,47.65-71.19l.57,1.42c-9.08,8.79-13.33,19.28-20.42,37.72-5.11,13-9.65,26.09-14.47,38.86,11.06,2.27,23.54,5.67,36,5.67,5.11,0,10.78-2,13.9-7.37l1.13.85c-4.53,7.37-12.47,14.18-31.19,14.18-6,0-14.47-1.7-23.26-3.69-3.12,8.51-6.24,17-9.65,25a45.64,45.64,0,0,0,19-9.93l.56.86a44.65,44.65,0,0,1-20.13,10.49c-18.72,45.95-42,81.69-89.06,81.69-31.2,0-46-19-46-38s14.76-38.29,41.7-38.29c25.81,0,38,15.6,38,31.2,0,14.75-11.35,29.5-32.62,29.5A36.22,36.22,0,0,1,347,827.6l.29-1.13a33.06,33.06,0,0,0,9.64,1.42c19,0,29.21-13.9,29.21-28.08,0-14.75-11.06-30.07-34-30.07-24.4,0-37.16,17.87-37.16,36,0,18.72,13.33,37.45,40.85,37.45,38.85,0,56.15-34.33,73.17-79.14-9.07-1.42-17.58-6-17.58-16.73C411.35,734,423.26,725.21,441.7,725.21ZM385.54,622.82c-40.85,0-58.72,25.81-58.72,49.35,0,19.86,14.75,37.73,48.51,37.73,35.17,0,57.29-22.13,57.29-41.7,0-16.45-16.73-24.11-35.74-24.11-15,0-31.76,4.54-42.83,13.33L353.2,656c13.33-10.49,30.35-15.59,42.55-15.59,20.7,0,38.29,9.92,38.29,27.79,0,21-23.26,45.67-59.28,45.67-32.62,0-49.35-20.14-49.35-41.7,0-29.21,25.24-60.69,80.27-60.69,63.81,0,132.74,32.33,174.43,32.33,17.59,0,22.12-6,22.12-10.5,0-4.25-4.53-8.22-14.46-8.22a30.52,30.52,0,0,0-15.89,4.82l-.85-1.13a32.6,32.6,0,0,1,17.59-5.39c8.51,0,15.6,4,15.6,11.06,0,9.93-9.08,19.57-33.75,19.57C526.22,654,461.27,622.82,385.54,622.82Zm54.17,111.47a63.24,63.24,0,0,0-7.09-.57c-15.6,0-19.86,7.38-19.86,13.62,0,10.49,8.23,14.46,16.46,15.6Z"/></svg>